<?xml version="1.0" encoding="iso-8859-1"?>
<!-- Generator: Adobe Illustrator 19.0.0, SVG Export Plug-In . SVG Version: 6.00 Build 0)  -->
<svg version="1.1" id="Layer_1" xmlns="http://www.w3.org/2000/svg" xmlns:xlink="http://www.w3.org/1999/xlink" x="0px" y="0px"
	 viewBox="0 0 512 512" style="enable-background:new 0 0 512 512;" xml:space="preserve">
<g>
	<path style="fill:#735643;" d="M28.541,193.878c-30.919,15.832,67.271,207.594,98.19,191.762
		c29.077-14.889,86.366-116.835,86.366-116.835L28.541,193.878z"/>
	<path style="fill:#735643;" d="M483.459,193.878l-184.557,74.927c0,0,57.289,101.946,86.366,116.835
		C416.188,401.471,514.378,209.71,483.459,193.878z"/>
</g>
<path style="fill:#FF462E;" d="M443.733,125.432c-34.505,0-137.444,68.267-137.444,68.267l-22.756,45.511l22.756,45.511
	c0,0,102.938,68.267,137.444,68.267c14.293,0,68.267-84.081,68.267-113.778S458.026,125.432,443.733,125.432z"/>
<g>
	<path style="fill:#4D3A2D;" d="M0,239.209c0,29.697,53.974,113.778,68.267,113.778c34.505,0,137.444-68.267,137.444-68.267
		l22.756-45.511l-22.756-45.511c0,0-102.938-68.267-137.444-68.267C53.974,125.432,0,209.512,0,239.209z"/>
	<path style="fill:#4D3A2D;" d="M512,239.209c0,29.697-53.974,113.778-68.267,113.778c-34.505,0-137.444-68.267-137.444-68.267
		l-22.756-45.511l22.756-45.511c0,0,102.938-68.267,137.444-68.267C458.026,125.432,512,209.512,512,239.209z"/>
</g>
<path style="fill:#261D16;" d="M374.556,247.743H137.444c-4.714,0-8.533-3.82-8.533-8.533c0-4.714,3.82-8.533,8.533-8.533h237.113
	c4.714,0,8.533,3.82,8.533,8.533C383.09,243.923,379.27,247.743,374.556,247.743z"/>
<rect x="205.71" y="193.695" style="fill:#735643;" width="100.58" height="91.022"/>
<g>
</g>
<g>
</g>
<g>
</g>
<g>
</g>
<g>
</g>
<g>
</g>
<g>
</g>
<g>
</g>
<g>
</g>
<g>
</g>
<g>
</g>
<g>
</g>
<g>
</g>
<g>
</g>
<g>
</g>
</svg>
