<?xml version="1.0" encoding="iso-8859-1"?>
<!-- Generator: Adobe Illustrator 19.0.0, SVG Export Plug-In . SVG Version: 6.00 Build 0)  -->
<svg version="1.1" id="Layer_1" xmlns="http://www.w3.org/2000/svg" xmlns:xlink="http://www.w3.org/1999/xlink" x="0px" y="0px"
	 viewBox="0 0 512 512" style="enable-background:new 0 0 512 512;" xml:space="preserve">
<polygon style="fill:#DEDAD2;" points="156.859,34.001 9.379,68.135 9.379,512 256,512 290.133,34.001 "/>
<polygon style="fill:#BDB5A5;" points="502.621,68.135 355.141,34.001 256,34.001 256,512 502.621,512 "/>
<polygon style="fill:#585046;" points="181.455,23.502 256,158.898 330.545,23.502 "/>
<polygon style="fill:#8B8275;" points="145.401,0 145.401,44.203 204.896,107.876 237.058,58.209 186.15,29.47 325.85,29.47 
	274.942,58.209 307.104,107.876 366.599,44.203 366.599,0 "/>
<g>
	<path style="fill:#261D16;" d="M66.555,438.044v55.775c0,10.041,8.14,18.181,18.181,18.181s18.181-8.14,18.181-18.181v-55.775
		H66.555z"/>
	<path style="fill:#261D16;" d="M445.445,438.044v55.775c0,10.041-8.14,18.181-18.181,18.181s-18.181-8.14-18.181-18.181v-55.775
		H445.445z"/>
</g>
<polygon style="fill:#FF462E;" points="110.765,460.8 58.707,460.8 58.707,45.34 110.765,33.291 "/>
<path style="fill:#261D16;" d="M110.765,348.16H58.707c-4.713,0-8.533-3.82-8.533-8.533c0-4.714,3.821-8.533,8.533-8.533h52.057
	c4.713,0,8.533,3.819,8.533,8.533C119.297,344.34,115.478,348.16,110.765,348.16z"/>
<polygon style="fill:#FF462E;" points="401.235,460.8 453.293,460.8 453.293,45.34 401.235,33.291 "/>
<g>
	<path style="fill:#261D16;" d="M453.292,348.16h-52.057c-4.714,0-8.533-3.82-8.533-8.533c0-4.714,3.82-8.533,8.533-8.533h52.057
		c4.714,0,8.533,3.819,8.533,8.533C461.825,344.34,458.006,348.16,453.292,348.16z"/>
	<circle style="fill:#261D16;" cx="290.702" cy="423.151" r="8.533"/>
	<circle style="fill:#261D16;" cx="290.702" cy="334.882" r="8.533"/>
	<circle style="fill:#261D16;" cx="290.702" cy="246.602" r="8.533"/>
</g>
<g>
</g>
<g>
</g>
<g>
</g>
<g>
</g>
<g>
</g>
<g>
</g>
<g>
</g>
<g>
</g>
<g>
</g>
<g>
</g>
<g>
</g>
<g>
</g>
<g>
</g>
<g>
</g>
<g>
</g>
</svg>
