<?xml version="1.0" encoding="iso-8859-1"?>
<!-- Generator: Adobe Illustrator 19.0.0, SVG Export Plug-In . SVG Version: 6.00 Build 0)  -->
<svg version="1.1" id="Layer_1" xmlns="http://www.w3.org/2000/svg" xmlns:xlink="http://www.w3.org/1999/xlink" x="0px" y="0px"
	 viewBox="0 0 512.003 512.003" style="enable-background:new 0 0 512.003 512.003;" xml:space="preserve">
<path style="fill:#BDB5A5;" d="M291.508,212.242c-4.561,0-8.259-3.697-8.259-8.259v-22.256c-7.036-7.59-16.82-11.891-27.249-11.891
	s-20.212,4.301-27.249,11.891v22.256c0,4.562-3.698,8.259-8.259,8.259s-8.259-3.697-8.259-8.259v-25.314
	c0-1.875,0.639-3.693,1.809-5.159c10.264-12.832,25.556-20.192,41.958-20.192s31.694,7.36,41.958,20.192
	c1.171,1.465,1.809,3.283,1.809,5.159v25.314C299.766,208.546,296.069,212.242,291.508,212.242z"/>
<path style="fill:#8B8275;" d="M409.018,85.008H102.982c-4.561,0-8.259,3.697-8.259,8.259v12.116h16.517v-3.857h289.519v3.857
	h16.517V93.267C417.277,88.705,413.579,85.008,409.018,85.008z"/>
<path style="fill:#4D3A2D;" d="M354.312,290.22c-47.431-21.168-68.235-86.333-61.757-123.236
	c5.419-30.864,27.662-61.602,93.589-61.602c70.631,0,107.275,16.961,116.299,60.566C515.014,226.69,435.572,326.486,354.312,290.22z
	"/>
<g>
	<path style="fill:#735643;" d="M424.459,107.506L301.517,230.448c6.255,15.552,15.401,30.479,27.417,42.248l147.779-147.779
		C463.964,115.899,446.664,110.285,424.459,107.506z"/>
	<path style="fill:#735643;" d="M80.358,414.141C127.741,428.16,194.447,417.405,256,349.31
		C187.546,306.645,114.421,401.901,80.358,414.141z"/>
	<path style="fill:#735643;" d="M256.001,349.31c61.552,68.095,128.259,78.85,175.642,64.831
		C397.58,401.901,324.454,306.645,256.001,349.31z"/>
</g>
<path style="fill:none;stroke:#735643;stroke-width:15;stroke-linecap:round;stroke-linejoin:round;stroke-miterlimit:10;" d="
	M431.643,414.142C397.581,401.904,324.456,306.645,256,349.311c-68.456-42.666-141.581,52.593-175.643,64.831"/>
<path style="fill:#735643;" d="M117.951,426.995c-7.225,0-14.383-0.529-21.413-1.593c-37.563-5.686-69.916-26.774-82.424-53.726
	c-1.744-3.757-0.111-8.217,3.646-9.96c3.756-1.746,8.216-0.112,9.96,3.646c10.447,22.51,38.341,40.256,71.063,45.209
	c30.134,4.563,89.911,2.016,151.653-66.291c1.422-1.573,3.443-2.471,5.564-2.471c2.121,0,4.142,0.897,5.564,2.471
	c61.741,68.306,121.515,70.85,151.653,66.291c32.722-4.953,60.615-22.699,71.063-45.209c1.744-3.757,6.204-5.391,9.96-3.646
	c3.757,1.743,5.39,6.203,3.646,9.96c-12.508,26.951-44.86,48.039-82.423,53.726c-25.836,3.908-53.395,0.587-79.692-9.615
	c-28.3-10.979-55.104-29.619-79.77-55.458c-24.666,25.839-51.47,44.479-79.77,55.458
	C157.088,423.213,137.279,426.995,117.951,426.995z"/>
<path style="fill:#4D3A2D;" d="M71.149,290.22C23.718,269.052,2.915,203.888,9.393,166.985
	c5.419-30.864,27.662-61.602,93.589-61.602c70.631,0,107.275,16.961,116.299,60.566C231.852,226.69,152.41,326.486,71.149,290.22z"
	/>
<path style="fill:#735643;" d="M141.296,107.506L18.355,230.448C24.61,246,33.756,260.927,45.772,272.696l147.779-147.779
	C180.802,115.899,163.502,110.285,141.296,107.506z"/>
<g>
	<path style="fill:#BDB5A5;" d="M106.632,306.208c-13.221,0-26.29-2.841-38.848-8.446C16.228,274.753-5.71,205.254,1.259,165.556
		c3.496-19.912,12.611-35.86,27.091-47.405c17.503-13.953,42.613-21.027,74.632-21.027c38.03,0,65.035,4.71,84.986,14.824
		c21.478,10.887,34.366,28.004,39.401,52.328c5.798,28.012-5.637,63.883-29.84,93.609
		C172.522,288.594,139.393,306.208,106.632,306.208z M102.982,113.642c-50.323,0-79.075,18.427-85.455,54.771
		c-5.897,33.589,13.371,94.801,56.987,114.267c10.426,4.652,21.23,7.011,32.117,7.011c27.77,0,56.232-15.393,78.087-42.234
		c20.826-25.578,31.218-56.915,26.474-79.833c-4.004-19.346-13.758-32.357-30.694-40.942
		C163.191,117.907,137.835,113.642,102.982,113.642z"/>
	<path style="fill:#BDB5A5;" d="M405.369,306.208c-32.761,0-65.89-17.613-90.895-48.323c-24.204-29.726-35.638-65.595-29.84-93.609
		c5.033-24.325,17.921-41.441,39.401-52.328c19.951-10.114,46.956-14.824,84.986-14.824c32.02,0,57.129,7.075,74.632,21.028
		c14.48,11.543,23.595,27.493,27.091,47.405c6.969,39.698-14.968,109.197-66.526,132.206
		C431.659,303.366,418.587,306.208,405.369,306.208z M409.018,113.642c-34.853,0-60.209,4.265-77.517,13.039
		c-16.936,8.586-26.69,21.595-30.694,40.942c-4.744,22.919,5.649,54.255,26.474,79.833c21.855,26.841,50.317,42.234,78.087,42.234
		c10.886,0,21.691-2.36,32.117-7.011c43.616-19.465,62.884-80.678,56.987-114.267C488.093,132.069,459.341,113.642,409.018,113.642z
		"/>
</g>
<g>
</g>
<g>
</g>
<g>
</g>
<g>
</g>
<g>
</g>
<g>
</g>
<g>
</g>
<g>
</g>
<g>
</g>
<g>
</g>
<g>
</g>
<g>
</g>
<g>
</g>
<g>
</g>
<g>
</g>
</svg>
